PathFileType	4	(X/Y/Z)	 s07c0203.trc
DataRate	CameraRate	NumFrames	NumMarkers	Units	OrigDataRate	OrigDataStartFrame	OrigNumFrames
200	200	4	48	mm	200	1251	2000
Frame#	Time	racr			lacr			c7			jug			rlel			rdr			llel			ldr			s2			lic			ric			lasi			rasi			rpsi			lpsi			rgt			lgt			rth1			rth2			rth3			rth4			rlfc			rmfc			rsh1			rsh2			rsh3			rsh4			rlmal			rcal			rtoe			rmt5			lth1			lth2			lth4			lth3			llfc			lmfc			lsh1			lsh2			lsh3			lsh4			llmal			lcal			ltoe			lmt5			SBIKE			LBIKE			RBIKE			
		X1	Y1	Z1	X2	Y2	Z2	X3	Y3	Z3	X4	Y4	Z4	X5	Y5	Z5	X6	Y6	Z6	X7	Y7	Z7	X8	Y8	Z8	X9	Y9	Z9	X10	Y10	Z10	X11	Y11	Z11	X12	Y12	Z12	X13	Y13	Z13	X14	Y14	Z14	X15	Y15	Z15	X16	Y16	Z16	X17	Y17	Z17	X18	Y18	Z18	X19	Y19	Z19	X20	Y20	Z20	X21	Y21	Z21	X22	Y22	Z22	X23	Y23	Z23	X24	Y24	Z24	X25	Y25	Z25	X26	Y26	Z26	X27	Y27	Z27	X28	Y28	Z28	X29	Y29	Z29	X30	Y30	Z30	X31	Y31	Z31	X32	Y32	Z32	X33	Y33	Z33	X34	Y34	Z34	X35	Y35	Z35	X36	Y36	Z36	X37	Y37	Z37	X38	Y38	Z38	X39	Y39	Z39	X40	Y40	Z40	X41	Y41	Z41	X42	Y42	Z42	X43	Y43	Z43	X44	Y44	Z44	X45	Y45	Z45	X46	Y46	Z46	X47	Y47	Z47	X48	Y48	Z48	
1251	6.2550	499.239975	1390.273992	-51.926390	525.994120	1389.911029	-344.003680	485.945313	1446.179966	-196.515253	431.672999	1301.850607	-210.998237	456.363084	1073.680961	102.918490	690.506125	950.826059	-29.430651	470.689583	1108.994757	-547.797518	694.358186	948.679605	-431.457565	-84.796907	1204.184452	-244.319631	70.254963	1268.046491	-389.037480	76.933595	1235.072065	-95.832734	99.369268	1187.029239	-368.632812	103.298658	1194.446062	-118.274416	-56.353031	1241.744971	-192.912894	-49.303160	1256.615387	-300.617674	45.047965	1126.098945	-55.690089	14.643122	1103.704778	-418.287376	192.329386	1072.141775	-63.579732	277.361256	1054.321319	-78.634350	344.773496	1002.042970	-78.210203	288.913867	1084.893945	-95.887602	446.650693	915.376454	-116.725441	430.564501	900.489263	-221.811486	352.307253	814.953083	-89.306149	307.016879	740.416309	-98.946253	231.763606	695.876050	-89.634677	318.052843	728.484878	-137.625339	132.460310	607.280474	-81.026373	64.787211	640.321440	-112.521365	185.370451	374.993541	-122.919387	122.818093	430.550539	-52.931622	70.082418	986.874679	-424.792391	132.230262	924.295306	-426.474223	163.874419	942.223773	-421.050871	155.168186	838.768698	-417.741607	240.905760	688.184149	-383.412452	223.693604	668.328146	-292.555129	204.809736	546.502412	-410.054971	209.724195	462.922908	-390.488806	173.262888	380.239686	-398.064350	210.673385	465.583465	-348.089132	140.078095	245.424600	-395.205802	76.137181	196.167123	-363.501316	365.048057	223.134141	-355.815470	290.810051	184.438725	-421.220185	-256.924938	965.535599	-234.107020	-75.539003	83.259692	-437.336698	-82.061762	79.917544	-39.859778	
1252	6.2600	497.104579	1392.214196	-49.123549	528.145697	1387.305255	-340.604134	485.967023	1445.418649	-194.635482	431.743330	1301.240629	-208.021954	454.696811	1073.638397	101.512802	690.827941	951.263929	-28.863711	472.180255	1109.150118	-548.639612	694.675896	948.541007	-431.537882	-84.306243	1203.752495	-247.966241	72.048994	1264.344275	-388.624085	75.106152	1236.889591	-97.614208	101.672502	1184.756222	-369.425696	101.954284	1195.773834	-119.170219	-58.464382	1241.723187	-196.000467	-47.860139	1255.545000	-304.505478	43.524612	1128.349606	-56.784631	16.409763	1101.677295	-419.228380	191.661628	1076.914188	-63.768126	277.391452	1061.046959	-78.529572	345.469191	1009.856567	-78.113913	288.350723	1091.088408	-96.811770	449.220809	925.173839	-116.479852	433.636029	910.031688	-222.178118	356.368936	824.316066	-89.286040	311.187351	749.254791	-99.551535	236.119023	704.493146	-90.291401	322.229840	737.502446	-138.229409	136.813162	615.002347	-81.636844	67.777941	645.921263	-112.819455	196.075705	384.328232	-123.053894	131.975701	438.060029	-53.157403	69.565271	984.719325	-425.695379	130.571719	920.852111	-427.266853	162.486039	938.191739	-421.323071	151.704077	834.944983	-418.577575	234.845396	683.070264	-383.362288	216.720993	663.285054	-292.670779	198.045341	541.726003	-410.184301	202.528428	458.065966	-390.493148	165.672351	375.517101	-398.014256	203.478692	460.704020	-348.093693	132.050809	241.036712	-395.408362	67.604602	192.471854	-363.437030	356.783768	216.265504	-355.907917	282.128676	178.376621	-421.149871	-256.939705	965.525658	-234.146977	-75.549113	83.290167	-437.329461	-82.036693	79.951866	-39.876152	
1253	6.2650	494.885766	1394.067315	-46.493179	530.317042	1384.494206	-337.188148	486.129297	1444.606575	-192.950805	431.797699	1300.326493	-205.068326	453.235066	1073.694078	100.142108	691.117717	951.696623	-28.446347	473.781026	1109.138726	-549.229290	695.076564	948.395288	-431.701107	-84.079612	1203.341116	-251.524366	70.385473	1257.323944	-378.123572	72.992708	1238.947555	-99.231173	103.984818	1182.727289	-370.411114	100.558222	1197.094448	-119.994123	-57.755341	1242.530862	-200.625169	-46.805210	1254.769972	-308.092972	41.885377	1130.677535	-57.736099	18.066989	1099.826260	-420.134717	190.811226	1081.716210	-64.317384	276.683676	1067.915999	-77.855094	345.927926	1017.715690	-78.082644	287.164007	1097.696993	-97.576729	451.407046	934.525013	-116.892928	436.273695	919.310532	-222.455716	359.923192	833.043672	-90.082019	315.156274	757.944577	-99.962339	240.430295	712.789772	-90.699116	326.215229	746.173656	-138.827719	141.124663	622.108941	-81.966497	70.657816	650.656958	-113.133184	207.637462	393.778643	-122.363420	141.465516	444.923581	-53.216533	69.100496	982.796997	-426.537655	128.996391	917.927124	-428.107907	161.183317	934.765754	-421.606796	148.637606	831.617075	-419.582151	229.253145	678.558618	-383.522611	211.051544	659.226575	-293.316462	191.746034	537.650956	-410.354397	195.762235	453.955018	-390.576283	158.359025	371.701774	-398.172401	196.362948	456.615691	-347.930571	123.729507	237.405068	-395.525746	58.871991	189.674534	-363.528764	348.344373	209.855015	-355.926696	273.161863	172.920183	-421.211443	-256.962223	965.521908	-234.205120	-75.550096	83.280000	-437.338786	-82.034287	79.954727	-39.889680	
1254	6.2700	492.753021	1395.709590	-43.986454	532.469515	1381.471318	-333.780985	486.389198	1443.727648	-191.169962	431.845612	1299.375547	-202.012973	451.980343	1073.729458	98.842801	691.610118	952.120091	-28.535063	475.238270	1109.127137	-550.223451	695.543326	948.267896	-432.018791	-83.920021	1203.003919	-254.563576	73.048037	1254.884906	-380.126914	70.616666	1241.120072	-100.167627	105.825269	1180.590562	-370.833086	99.020820	1198.381692	-120.753311	-58.378186	1242.376725	-204.349555	-45.895974	1253.871233	-311.331084	40.252379	1133.067709	-58.535362	19.528783	1098.030386	-420.921479	189.627443	1086.462666	-64.915860	275.720800	1074.110581	-78.530395	345.994287	1025.211051	-78.168017	285.801925	1103.876321	-98.334372	453.929586	943.806196	-116.826315	438.590141	928.306973	-222.706482	363.230254	841.810690	-90.334330	319.078341	766.219050	-100.063772	244.647448	720.706660	-90.917314	330.011882	754.223082	-139.569358	145.127541	628.835740	-82.193779	73.842610	654.539578	-113.110751	218.865985	402.133591	-122.531027	151.174658	450.993160	-53.307965	68.634797	981.221326	-427.417092	127.582482	915.452584	-429.001619	160.009984	931.663754	-421.960748	145.861937	828.785496	-420.663328	224.432365	674.822498	-383.875691	205.786866	655.654185	-293.383300	186.146640	534.270675	-410.564860	189.239661	450.629636	-390.760798	151.181630	368.559070	-398.464007	189.727743	453.205305	-348.087282	115.303818	234.571778	-395.731805	49.937842	187.757106	-363.741134	339.677592	203.795381	-355.914668	264.047938	168.022228	-421.245087	-256.999016	965.515139	-234.304371	-75.564850	83.272270	-437.348269	-82.031883	79.985451	-39.877627	
